<?xml version="1.0" encoding="utf-8"?>
<!-- Generator: Adobe Illustrator 19.1.1, SVG Export Plug-In . SVG Version: 6.00 Build 0)  -->
<svg version="1.1" xmlns="http://www.w3.org/2000/svg" xmlns:xlink="http://www.w3.org/1999/xlink" x="0px" y="0px"
	 viewBox="0 0 37.1 34" style="enable-background:new 0 0 37.1 34;" xml:space="preserve">
<style type="text/css">
	.st0{display:none;}
	.st1{display:inline;}
	.st2{fill:none;stroke:#002341;stroke-width:1.4938;stroke-linecap:round;stroke-miterlimit:10;}
	.st3{display:inline;fill:#00C8E1;}
	.st4{fill:#002341;}
	.st5{fill:#00C8E1;}
	.st6{fill:none;stroke:#002341;stroke-width:1.5;stroke-linecap:round;stroke-miterlimit:10;}
</style>
<g id="Isolation_Mode" class="st0">
	<g class="st1">
		<path class="st2" d="M0.8,29.9c0,0,0-4.3,0-5.2c0-0.4,0.2-0.6,0.4-0.9c0.3-0.3,0.5-0.5,0.8-0.8c0.2-0.2,0.2-0.9,0.2-1
			c0.2-2.5,0.9-4.8,2.1-7c1-1.8,2.3-3.3,4-4.6c1.1-0.8,2.2-1.5,3.4-2.1c0.1,0,0.2-0.2,0.2-0.3c0.1-1,0.6-1.7,1.4-2.2
			c0.5-0.3,1-0.4,1.6-0.4c0.7,0,1.5,0,2.2,0c0.3,0,0.4-0.1,0.4-0.4c0-0.6,0.4-1,1-1.1c0.6,0,1.1,0.4,1,1c0,0.3,0.1,0.4,0.4,0.4
			c0.9,0,1.8,0,2.6,0c1.2,0,2.4,1.1,2.5,2.3c0,0.4,0.3,0.6,0.6,0.7c1.9,0.9,3.5,2.1,4.9,3.6c1.6,1.7,2.8,3.7,3.5,6
			c0.5,1.5,0.7,3,0.8,4.5c0,0.1,0.1,0.3,0.2,0.4c0.3,0.3,0.6,0.6,0.9,0.9c0.2,0.2,0.3,0.5,0.3,0.8c0,0.8,0,5.2,0,5.2H0.8z"/>
		<line class="st2" x1="18.6" y1="4.2" x2="18.6" y2="12.6"/>
		<line class="st2" x1="27.4" y1="23.9" x2="9.8" y2="23.9"/>
		<line class="st2" x1="12.3" y1="7.2" x2="12.3" y2="12.6"/>
		<line class="st2" x1="24.9" y1="7.2" x2="24.9" y2="12.6"/>
	</g>
	<polygon id="XMLID_2_" class="st3" points="15.6,30.7 18.6,25.3 21.6,30.7 	"/>
</g>
<g id="Capa_2">
	<g>
		<g>
			<g>
				<path class="st4" d="M11.9,32.2H8.1c-1,0-1.9-0.8-1.9-1.9V27c0-0.3,0.1-0.6,0.2-0.8l1-1.9c0-0.1,0.1-0.2,0.1-0.3v-9.3
					c0-0.1,0-0.2-0.1-0.3l-1-1.9c-0.1-0.3-0.2-0.5-0.2-0.8V8.2c0-1,0.8-1.9,1.9-1.9h3.7c1,0,1.9,0.8,1.9,1.9v3.4
					c0,0.3-0.1,0.6-0.2,0.8l-1,1.9c0,0.1-0.1,0.2-0.1,0.3v9.3c0,0.1,0,0.2,0.1,0.3l1,1.9c0.1,0.3,0.2,0.5,0.2,0.8v3.4
					C13.7,31.4,12.9,32.2,11.9,32.2z M8.1,7.5c-0.3,0-0.6,0.3-0.6,0.6v3.4c0,0.1,0,0.2,0.1,0.3l1,1.9c0.1,0.3,0.2,0.5,0.2,0.8v9.3
					c0,0.3-0.1,0.6-0.2,0.8l-1,1.9c0,0.1-0.1,0.2-0.1,0.3v3.4c0,0.3,0.3,0.6,0.6,0.6h3.7c0.3,0,0.6-0.3,0.6-0.6V27
					c0-0.1,0-0.2-0.1-0.3l-1-1.9c-0.1-0.3-0.2-0.5-0.2-0.8v-9.3c0-0.3,0.1-0.6,0.2-0.8l1-1.9c0-0.1,0.1-0.2,0.1-0.3V8.2
					c0-0.3-0.3-0.6-0.6-0.6H8.1z"/>
			</g>
			<g>
				<path class="st4" d="M6.9,31H3.2c-0.3,0-0.6-0.3-0.6-0.6V8.2c0-0.3,0.3-0.6,0.6-0.6h3.7c0.3,0,0.6,0.3,0.6,0.6
					c0,0.3-0.3,0.6-0.6,0.6H3.8v21h3.1c0.3,0,0.6,0.3,0.6,0.6C7.5,30.7,7.3,31,6.9,31z"/>
			</g>
			<g>
				<path class="st4" d="M31.6,31H13.1c-0.3,0-0.6-0.3-0.6-0.6c0-0.3,0.3-0.6,0.6-0.6H31v-21H13.1c-0.3,0-0.6-0.3-0.6-0.6
					c0-0.3,0.3-0.6,0.6-0.6h18.5c0.3,0,0.6,0.3,0.6,0.6v22.2C32.2,30.7,31.9,31,31.6,31z"/>
			</g>
			<g>
				<path class="st4" d="M11.9,7.5c-0.3,0-0.6-0.3-0.6-0.6V3.2c0-0.3,0.3-0.6,0.6-0.6c0.3,0,0.6,0.3,0.6,0.6v3.7
					C12.5,7.3,12.2,7.5,11.9,7.5z"/>
			</g>
			<g>
				<path class="st4" d="M27.9,16.2H16.8c-0.3,0-0.6-0.3-0.6-0.6v-3.7c0-0.3,0.3-0.6,0.6-0.6h11.1c0.3,0,0.6,0.3,0.6,0.6v3.7
					C28.5,15.9,28.2,16.2,27.9,16.2z M17.4,14.9h9.9v-2.5h-9.9V14.9z"/>
			</g>
			<g>
				<path class="st4" d="M18,19.9h-1.2c-0.3,0-0.6-0.3-0.6-0.6s0.3-0.6,0.6-0.6H18c0.3,0,0.6,0.3,0.6,0.6S18.4,19.9,18,19.9z"/>
			</g>
			<g>
				<path class="st4" d="M23,19.9h-1.2c-0.3,0-0.6-0.3-0.6-0.6s0.3-0.6,0.6-0.6H23c0.3,0,0.6,0.3,0.6,0.6S23.3,19.9,23,19.9z"/>
			</g>
			<g>
				<path class="st4" d="M27.9,19.9h-1.2c-0.3,0-0.6-0.3-0.6-0.6s0.3-0.6,0.6-0.6h1.2c0.3,0,0.6,0.3,0.6,0.6S28.2,19.9,27.9,19.9z"
					/>
			</g>
			<g>
				<path class="st4" d="M18,23.6h-1.2c-0.3,0-0.6-0.3-0.6-0.6c0-0.3,0.3-0.6,0.6-0.6H18c0.3,0,0.6,0.3,0.6,0.6
					C18.6,23.3,18.4,23.6,18,23.6z"/>
			</g>
			<g>
				<path class="st4" d="M23,23.6h-1.2c-0.3,0-0.6-0.3-0.6-0.6c0-0.3,0.3-0.6,0.6-0.6H23c0.3,0,0.6,0.3,0.6,0.6
					C23.6,23.3,23.3,23.6,23,23.6z"/>
			</g>
			<g>
				<path class="st4" d="M27.9,23.6h-1.2c-0.3,0-0.6-0.3-0.6-0.6c0-0.3,0.3-0.6,0.6-0.6h1.2c0.3,0,0.6,0.3,0.6,0.6
					C28.5,23.3,28.2,23.6,27.9,23.6z"/>
			</g>
			<g>
				<path class="st4" d="M18,27.3h-1.2c-0.3,0-0.6-0.3-0.6-0.6s0.3-0.6,0.6-0.6H18c0.3,0,0.6,0.3,0.6,0.6S18.4,27.3,18,27.3z"/>
			</g>
			<g>
				<path class="st4" d="M23,27.3h-1.2c-0.3,0-0.6-0.3-0.6-0.6s0.3-0.6,0.6-0.6H23c0.3,0,0.6,0.3,0.6,0.6S23.3,27.3,23,27.3z"/>
			</g>
			<g>
				<path class="st4" d="M27.9,27.3h-1.2c-0.3,0-0.6-0.3-0.6-0.6s0.3-0.6,0.6-0.6h1.2c0.3,0,0.6,0.3,0.6,0.6S28.2,27.3,27.9,27.3z"
					/>
			</g>
		</g>
		<polygon id="XMLID_4_" class="st5" points="28.6,31 31.6,25.6 34.6,31 		"/>
	</g>
</g>
<g id="Capa_3" class="st0">
	<g class="st1">
		<circle id="XMLID_329_" class="st6" cx="18.6" cy="13.2" r="5.8"/>
		<path class="st6" d="M31.2,13.5c0-7-5.6-12.6-12.6-12.6C11.6,0.9,6,6.5,6,13.5c0,3.1,1.1,6,3,8.2l9.6,11.2l9.6-11.1
			C30,19.4,31.2,16.6,31.2,13.5z"/>
		<polygon id="XMLID_328_" class="st5" points="15.6,34 18.6,28.6 21.6,34 		"/>
	</g>
</g>
</svg>
